<?xml version="1.0" standalone="no"?><!DOCTYPE svg PUBLIC "-//W3C//DTD SVG 1.1//EN" "http://www.w3.org/Graphics/SVG/1.1/DTD/svg11.dtd"><svg class="icon" height="512" viewBox="0 0 1024 1024" version="1.1" xmlns="http://www.w3.org/2000/svg"><path d="M170.865018 633.732505c-0.394996-3.300162-0.733711-6.598278-1.071402-9.912767-1.325182-22.405289-1.072425-43.314505-0.197498-60.178591 17.511839-198.684108 182.735881-316.700989 186.092325-315.799456-2.481518 2.368954-50.675146 38.887682-92.524277 108.824521-41.820478 68.469418-77.296457 170.356946-54.989405 269.973758 71.797209-23.475667 103.155405-69.64008 130.791835-162.404834 15.08558-49.984415 27.747971-120.864742 58.908668-179.830715 28.200272-58.909691 72.022337-102.521978 70.52831-102.112656-0.394996 2.044566-47.826262-12.253068-128.84653 10.053983-78.056774 19.457144-191.476963 86.714967-240.460584 188.362019-74.476225 162.305573-14.043854 243.887636 43.004443 252.150834-5.41329 56.682977 2.115174 125.44813 31.838126 173.642782 16.07307 15.32708 37.872562 11.392468 48.617277-11.040451-26.649963-27.495214-47.91222-98.023524-52.085262-161.671123C170.611238 633.775484 170.753477 633.760135 170.865018 633.732505zM355.969852 247.786433c0-0.027629-0.057305-0.027629-0.112564-0.027629C355.942223 247.744477 355.969852 247.744477 355.969852 247.786433zM661.206742 177.089277c2.847861 1.890047 5.640464 3.835352 8.402367 5.809309 18.273179 13.931291 34.320667 28.04473 46.841841 39.945781C859.086531 368.229572 841.855078 570.014298 838.924329 571.931974c-0.199545-3.467985 3.241834-63.702857-23.49204-141.465942-25.604144-76.816526-81.273025-171.145915-173.288718-220.820268-29.076222 69.160149-13.902638 123.304304 39.902802 205.677383 28.848025 44.541449 75.490322 101.195773 100.730169 163.728992 27.183106 60.234873 32.091906 121.951493 32.79594 120.540354-1.323135-1.620917 41.003879-27.465538 77.016071-102.718453 36.348859-71.177086 58.854433-200.558805 12.21009-304.757982-76.873832-163.629731-179.971931-172.922375-223.936235-135.909389-40.439014-41.764196-98.728582-81.963757-155.720597-91.904153-22.474874 1.763157-33.783431 20.657482-23.462365 43.639916 38.887682-1.578961 107.61088 29.538757 159.751401 68.835761C661.346935 176.863127 661.290653 176.976714 661.206742 177.089277zM838.781066 572.157101c0.058328 0.027629 0.058328 0 0.113587-0.056282C838.838372 572.185754 838.810742 572.214407 838.781066 572.157101zM799.134091 786.674826c-2.90619 1.763157-5.810333 3.496637-8.742105 5.161556-20.136619 10.601452-39.508829 19.104103-55.412031 25.350364-189.955306 66.651003-363.358635-38.73214-363.837542-42.271756 3.158946 1.352811 55.666834 31.231305 136.487557 41.157375 79.440283 10.56052 187.275267 1.199315 270.354428-61.362556-49.716308-57.428967-104.511285-67.524906-200.813608-54.596456-52.000328 6.754844-122.30351 24.534789-188.79897 20.009729-65.367777-1.763157-122.669854-24.605398-121.709993-23.364127 2.029216-0.465604 7.388271 49.912783 59.642378 116.452245 48.418756 65.013713 154.817018 143.101185 267.617084 146.455583 178.760336 1.89107 230.340085-88.773859 215.617779-145.666614 54.369282-18.641569 114.830305-54.426587 147.626245-102.422717 7.840572-21.445428-4.285606-40.255843-29.185716-40.932248-14.917758 36.46347-71.627341 85.868693-128.649032 116.39494C799.245631 786.91428 799.16172 786.78739 799.134091 786.674826zM371.000174 774.704191c-0.057305 0.01535-0.057305 0.042979 0 0.084934C370.943892 774.718517 370.915239 774.675538 371.000174 774.704191z" /></svg>