<?xml version="1.0" standalone="no"?><!DOCTYPE svg PUBLIC "-//W3C//DTD SVG 1.1//EN" "http://www.w3.org/Graphics/SVG/1.1/DTD/svg11.dtd"><svg class="icon" height="512" viewBox="0 0 1024 1024" version="1.1" xmlns="http://www.w3.org/2000/svg"><path d="M85.192287 1000.022039c-18.336088 0-33.287052-14.950964-33.287052-33.287052 0-114.812121 44.570799-222.571901 125.813774-303.814876 44.006612-44.006612 97.604408-78.422039 155.715702-99.579063-38.928926-23.13168-72.215978-55.572452-96.476033-93.93719C207.338843 423.140496 191.823691 369.5427 191.823691 314.534435 191.823691 154.869421 321.586777 24.824242 481.533884 24.824242c77.293664 0 150.073829 30.184022 204.8 84.910193 54.726171 54.726171 84.910193 127.506336 84.910193 204.8 0 159.665014-130.045179 289.710193-289.710193 289.710193-3.385124 0-6.770248 0-10.719559-0.282094-92.808815 2.538843-179.975758 40.339394-245.703581 106.067218C156.27989 778.578512 118.479339 869.97686 118.479339 966.734986 118.479339 985.071074 103.528375 1000.022039 85.192287 1000.022039zM481.251791 537.38843c1.410468 0 2.820937 0 4.513499 0.282094 120.453994-2.256749 218.62259-102.4 218.62259-223.136088 0-122.992837-100.143251-223.136088-223.136088-223.136088-122.992837 0-223.136088 100.143251-223.136088 223.136088 0 119.32562 93.373003 217.212121 212.698623 222.853994C474.199449 537.38843 477.866667 537.38843 481.251791 537.38843zM756.8573 993.533884c-9.026997 0-17.489807-2.820937-24.824242-8.46281-4.513499-3.667218-113.401653-88.013223-157.126171-156.844077-15.797245-24.824242-35.261708-55.572452-35.261708-100.989532 0-77.293664 58.111295-140.200551 129.480992-140.200551 32.722865 0 63.753168 12.976309 87.731129 36.95427 23.977961-23.977961 55.008264-36.95427 87.731129-36.95427 71.369697 0 129.480992 62.906887 129.480992 140.200551 0 45.41708-19.464463 76.165289-35.261708 100.989532-44.006612 69.112948-152.612672 153.17686-157.126171 156.844077C774.347107 990.712948 765.884298 993.533884 756.8573 993.533884zM669.126171 648.25124c-39.211019 0-70.80551 35.543802-70.80551 78.986226 0 25.106336 11.001653 44.570799 25.670523 67.138292 31.312397 49.084298 107.75978 113.119559 133.148209 133.430303 25.106336-20.310744 101.553719-84.063912 133.148209-133.430303 14.386777-22.849587 25.670523-42.031956 25.670523-67.138292 0-43.724518-31.876584-78.986226-70.80551-78.986226-27.645179 0-53.033609 18.336088-64.599449 46.545455L775.757576 705.23416l-2.820937 0c-4.513499 3.949311-10.155372 5.923967-16.079339 5.923967-6.206061 0-12.412121-2.538843-16.92562-6.770248l-1.974656 0.564187-4.231405-9.873278C722.15978 666.587328 696.77135 648.25124 669.126171 648.25124z" /></svg>